<?xml version="1.0" encoding="UTF-8"?>
<!-- Created with Inkscape (http://www.inkscape.org/) -->
<svg width="6.5484mm" height="5.5563mm" version="1.1" viewBox="0 0 6.5484 5.5563" xmlns="http://www.w3.org/2000/svg" xmlns:cc="http://creativecommons.org/ns#" xmlns:dc="http://purl.org/dc/elements/1.1/" xmlns:rdf="http://www.w3.org/1999/02/22-rdf-syntax-ns#">
 <metadata>
  <rdf:RDF>
   <cc:Work rdf:about="">
    <dc:format>image/svg+xml</dc:format>
    <dc:type rdf:resource="http://purl.org/dc/dcmitype/StillImage"/>
    <dc:title/>
   </cc:Work>
  </rdf:RDF>
 </metadata>
 <g transform="translate(-89.985 -109.24)">
  <g transform="matrix(.26458 0 0 .26458 89.985 108.74)" fill="#407bc2">
   <g fill="#407bc2">
    <path d="m0 3.875c0-1.104 0.896-2 2-2h20.75c1.104 0 2 0.896 2 2s-0.896 2-2 2h-20.75c-1.104 0-2-0.896-2-2zm22.75 6.5h-20.75c-1.104 0-2 0.896-2 2s0.896 2 2 2h20.75c1.104 0 2-0.896 2-2s-0.895-2-2-2zm0 8.5h-20.75c-1.104 0-2 0.896-2 2s0.896 2 2 2h20.75c1.104 0 2-0.896 2-2s-0.895-2-2-2z" fill="#407bc2"/>
   </g>
  </g>
 </g>
</svg>
